<?xml version="1.0" encoding="UTF-8" standalone="no"?>
<!DOCTYPE svg PUBLIC "-//W3C//DTD SVG 1.1//EN" "http://www.w3.org/Graphics/SVG/1.1/DTD/svg11.dtd">
<svg width="100%" height="100%" viewBox="0 0 1764 946" version="1.1" xmlns="http://www.w3.org/2000/svg" xmlns:xlink="http://www.w3.org/1999/xlink" xml:space="preserve" xmlns:serif="http://www.serif.com/" style="fill-rule:evenodd;clip-rule:evenodd;stroke-linejoin:round;stroke-miterlimit:2;">
    <g transform="matrix(1,0,0,1,-356,-1399)">
        <g transform="matrix(1,0,0,1,-354.5,114.969)">
            <text x="711.503px" y="1847.27px" style="font-family:'TimesNewRomanPSMT', 'Times New Roman', serif;font-size:600px;">COZZI</text>
        </g>
        <g transform="matrix(1,0,0,1,-351,595.969)">
            <text x="719.913px" y="1641.05px" style="font-family:'TimesNewRomanPSMT', 'Times New Roman', serif;font-size:266.667px;">F<tspan x="870.887px 1066.13px 1261.38px 1456.62px 1651.87px 1817.55px 1983.11px 2074.58px 2269.82px " y="1641.05px 1641.05px 1641.05px 1641.05px 1641.05px 1641.05px 1641.05px 1641.05px 1641.05px ">OUNDATION</tspan></text>
        </g>
        <g transform="matrix(1.00348,0,0,0.560976,28.9624,950.076)">
            <rect x="343" y="2412" width="1722" height="41"/>
        </g>
        <g transform="matrix(1,0,0,1,-13.3425,-14)">
            <text x="1157.34px" y="1490.43px" style="font-family:'TimesNewRomanPSMT', 'Times New Roman', serif;font-size:83.333px;">T<tspan x="1219.91px 1291.76px " y="1490.43px 1490.43px ">HE</tspan></text>
        </g>
        <g transform="matrix(1.00407,0,0,0.657143,-5.37097,498.6)">
            <g transform="matrix(0.439024,0,0,0.853659,1191.41,-631.024)">
                <rect x="343" y="2412" width="1722" height="41"/>
            </g>
            <g transform="matrix(0.439024,0,0,0.853659,225.415,-631.024)">
                <rect x="343" y="2412" width="1722" height="41"/>
            </g>
        </g>
    </g>
</svg>
